<?xml version="1.0" encoding="UTF-8"?>
<svg version="1.1" xmlns="http://www.w3.org/2000/svg" width="279" height="243">
<path d="M0 0 C0.79575943 0.3840802 1.59151886 0.7681604 2.41139221 1.16387939 C4.98538264 2.41144866 7.5450765 3.68572803 10.10546875 4.9609375 C11.88858972 5.83142753 13.67261654 6.70006433 15.45751953 7.56689453 C19.04287884 9.31138322 22.62295499 11.06603053 26.19873047 12.83007812 C30.79136404 15.09386245 35.39868402 17.32533915 40.015625 19.5390625 C40.67772476 19.85672577 41.33982452 20.17438904 42.02198792 20.50167847 C43.29737317 21.1135489 44.57278817 21.72535735 45.84823608 22.33709717 C50.67137912 24.65318293 55.48479536 26.98896031 60.29296875 29.3359375 C61.24921143 29.79983887 62.2054541 30.26374023 63.19067383 30.74169922 C64.08423584 31.1801416 64.97779785 31.61858398 65.8984375 32.0703125 C66.67856201 32.45155273 67.45868652 32.83279297 68.26245117 33.22558594 C73.85016785 36.28112705 76.1721908 40.56973018 78.29296875 46.3359375 C79.02174403 48.98396906 79.68598722 51.59603203 80.28588867 54.27148438 C80.46189102 55.03179459 80.63789337 55.7921048 80.81922913 56.57545471 C81.39403283 59.06704095 81.9591045 61.56071056 82.5234375 64.0546875 C82.9223508 65.7991961 83.32163349 67.54362027 83.7212677 69.28796387 C84.55515097 72.93496772 85.38412917 76.5830432 86.2097168 80.23193359 C87.26588442 84.89781897 88.33489345 89.56065149 89.40767956 94.22274017 C90.23410794 97.82124857 91.05335738 101.42136255 91.87050819 105.02198792 C92.26173905 106.74162168 92.65525462 108.46073736 93.05113792 110.17930603 C93.60418067 112.58473686 94.14741394 114.99218616 94.68823242 117.40039062 C94.85183258 118.10293472 95.01543274 118.80547882 95.18399048 119.52931213 C96.78237871 126.74582956 97.08916847 132.82638263 93.29296875 139.3359375 C91.42775218 141.97620808 89.38478938 144.43560551 87.29296875 146.8984375 C86.11487396 148.31556601 84.93780728 149.73354979 83.76171875 151.15234375 C83.17519531 151.85633301 82.58867187 152.56032227 81.984375 153.28564453 C79.53122829 156.25930591 77.15905928 159.29288218 74.79296875 162.3359375 C70.31678547 168.07125213 65.74387697 173.7225805 61.14208984 179.35742188 C57.51327749 183.80934189 53.94949954 188.30661887 50.41796875 192.8359375 C44.3120998 200.62176256 44.3120998 200.62176256 41.48046875 204.0234375 C40.99964844 204.60480469 40.51882812 205.18617188 40.0234375 205.78515625 C34.85834441 210.41391913 29.78119214 210.77893836 23.20166016 210.75585938 C21.85899834 210.76856369 21.85899834 210.76856369 20.48921204 210.78152466 C17.54083912 210.80485441 14.59298935 210.80591772 11.64453125 210.8046875 C9.58718661 210.81179179 7.52984395 210.81949118 5.47250366 210.82775879 C1.16357921 210.84119459 -3.14516205 210.84277651 -7.45410156 210.83691406 C-12.96434196 210.83102065 -18.47370047 210.86159936 -23.98377037 210.90203094 C-28.232134 210.92793492 -32.48028609 210.93078285 -36.7287178 210.92713928 C-38.75962158 210.92882817 -40.79053538 210.93844837 -42.82136154 210.95628357 C-45.66714506 210.9785253 -48.51115393 210.96874481 -51.35693359 210.95117188 C-52.1883638 210.96443512 -53.01979401 210.97769836 -53.87641907 210.99136353 C-60.92125575 210.89075206 -65.65042366 208.22176837 -70.72583008 203.42993164 C-71.20044678 202.83301514 -71.67506348 202.23609863 -72.1640625 201.62109375 C-72.71320313 200.94240234 -73.26234375 200.26371094 -73.828125 199.56445312 C-74.38628906 198.84966797 -74.94445312 198.13488281 -75.51953125 197.3984375 C-76.1228125 196.64626953 -76.72609375 195.89410156 -77.34765625 195.11914062 C-79.1475474 192.86832537 -80.92993609 190.60477541 -82.70703125 188.3359375 C-83.19606934 187.71444824 -83.68510742 187.09295898 -84.18896484 186.45263672 C-85.97133216 184.18745251 -87.75156989 181.92070965 -89.52270508 179.64672852 C-93.16994987 174.9752529 -96.92717705 170.40047288 -100.70703125 165.8359375 C-124.63406837 136.89294173 -124.63406837 136.89294173 -124.70703125 126.3359375 C-124.21463315 122.4614359 -123.34082475 118.71230932 -122.42578125 114.91796875 C-122.17679077 113.83425491 -121.92780029 112.75054108 -121.67126465 111.63398743 C-120.86390847 108.13536588 -120.03608911 104.64197394 -119.20703125 101.1484375 C-118.64727373 98.74815521 -118.08868333 96.34760046 -117.53125 93.94677734 C-116.43280329 89.22374529 -115.32664509 84.50261989 -114.21484375 79.78271484 C-112.93520926 74.3357813 -111.69797988 68.88079821 -110.48828125 63.41796875 C-110.17679775 62.02555296 -109.86496747 60.63321469 -109.55273438 59.2409668 C-109.00778794 56.80522616 -108.4695073 54.36797981 -107.93945312 51.92895508 C-106.34063036 44.9213149 -104.92629291 39.02284075 -99.203125 34.24609375 C-94.17104604 31.49672323 -88.99269073 29.13541099 -83.76953125 26.7734375 C-69.73692912 20.35515427 -55.87441882 13.60949225 -42.03540039 6.78491211 C-37.60679999 4.60509867 -33.16411803 2.45685359 -28.70703125 0.3359375 C-27.71219727 -0.14085449 -26.71736328 -0.61764648 -25.69238281 -1.10888672 C-16.54690647 -5.16899406 -8.8036187 -4.46821184 0 0 Z " fill="#336DE5" transform="translate(148.70703125,17.6640625)"/>
<path d="M0 0 C3.63 0 7.26 0 11 0 C11 7.26 11 14.52 11 22 C13.31 22 15.62 22 18 22 C26.60991586 24.39340835 36.95019378 28.37049985 42.96484375 35.24609375 C44.86342033 37.26960568 44.86342033 37.26960568 47.46484375 36.9921875 C50.46764009 35.81697907 52.22782787 34.34192345 54.5625 32.125 C62.14760148 25 62.14760148 25 65 25 C66.2890625 26.42578125 66.2890625 26.42578125 67.625 28.3125 C68.07101563 28.92738281 68.51703125 29.54226562 68.9765625 30.17578125 C70 32 70 32 70 35 C67.07525936 37.44350143 64.07366832 39.6695577 60.9765625 41.88476562 C60.34492188 42.35462891 59.71328125 42.82449219 59.0625 43.30859375 C58.18271484 43.93979126 58.18271484 43.93979126 57.28515625 44.58374023 C55.55200068 46.17496175 55.55200068 46.17496175 56 50 C56.7269318 51.73686759 57.52708578 53.44387527 58.375 55.125 C63.16890504 65.40345741 63.47397335 75.8426978 64 87 C66.97 87.99 66.97 87.99 70 89 C70.33 87.02 70.66 85.04 71 83 C76.09164733 83 76.92228781 84.38017308 80.37695312 87.78125 C81.33504883 88.75578125 81.33504883 88.75578125 82.3125 89.75 C82.97056641 90.38421875 83.62863281 91.0184375 84.30664062 91.671875 C84.92345703 92.290625 85.54027344 92.909375 86.17578125 93.546875 C86.74208252 94.11245117 87.30838379 94.67802734 87.8918457 95.26074219 C89 97 89 97 88.92211914 99.109375 C88 101 88 101 86.28173828 102.00488281 C85.18708252 102.3505127 85.18708252 102.3505127 84.0703125 102.703125 C82.87728516 103.08984375 82.87728516 103.08984375 81.66015625 103.484375 C80.82355469 103.73703125 79.98695313 103.9896875 79.125 104.25 C78.29613281 104.518125 77.46726563 104.78625 76.61328125 105.0625 C70.49433992 107 70.49433992 107 67 107 C67 104.69 67 102.38 67 100 C64.69 99.67 62.38 99.34 60 99 C59.50693359 100.12535156 59.50693359 100.12535156 59.00390625 101.2734375 C53.82630828 112.41439357 46.41124085 120.25560018 37 128 C37.99 131.465 37.99 131.465 39 135 C41.31 134.67 43.62 134.34 46 134 C45.67 141.59 45.34 149.18 45 157 C41 158 41 158 38.98535156 157.01196289 C37.94846191 156.2500061 37.94846191 156.2500061 36.890625 155.47265625 C36.13652344 154.92802734 35.38242188 154.38339844 34.60546875 153.82226562 C33.82816406 153.24154297 33.05085938 152.66082031 32.25 152.0625 C31.45722656 151.48564453 30.66445312 150.90878906 29.84765625 150.31445312 C27.88987549 148.88739607 25.94146531 147.44913352 24 146 C24.33 144.68 24.66 143.36 25 142 C26.32 141.67 27.64 141.34 29 141 C28.505 140.05125 28.01 139.1025 27.5 138.125 C26 135 26 135 26 133 C24.40865234 133.73283203 24.40865234 133.73283203 22.78515625 134.48046875 C17.07830905 136.61472659 11.45929611 136.40121238 5.4375 136.3125 C4.33986328 136.31572266 3.24222656 136.31894531 2.11132812 136.32226562 C-3.63546934 136.28416148 -8.58033563 135.95170123 -14 134 C-14.99 136.31 -15.98 138.62 -17 141 C-15.02 141.66 -13.04 142.32 -11 143 C-12.11333661 146.34000983 -12.67043105 146.75250881 -15.45703125 148.6640625 C-16.50793945 149.38722656 -16.50793945 149.38722656 -17.58007812 150.125 C-18.31677734 150.62 -19.05347656 151.115 -19.8125 151.625 C-20.53759766 152.12773437 -21.26269531 152.63046875 -22.00976562 153.1484375 C-25.33740435 155.41354566 -28.00553397 157.20498761 -32 158 C-32.83371359 155.04491553 -33.17889534 152.29890387 -33.31640625 149.234375 C-33.35830078 148.34492188 -33.40019531 147.45546875 -33.44335938 146.5390625 C-33.48267578 145.61867187 -33.52199219 144.69828125 -33.5625 143.75 C-33.60568359 142.81414062 -33.64886719 141.87828125 -33.69335938 140.9140625 C-33.7991805 138.60951359 -33.90126557 136.30486161 -34 134 C-31.69 134 -29.38 134 -27 134 C-26.01 132.02 -25.02 130.04 -24 128 C-24.58136719 127.73445313 -25.16273437 127.46890625 -25.76171875 127.1953125 C-36.99548101 121.19613056 -43.90264375 110.20298077 -49 99 C-51.31 99 -53.62 99 -56 99 C-55.67 101.64 -55.34 104.28 -55 107 C-60.17371125 106.3885614 -64.92413286 105.29702104 -69.875 103.6875 C-70.55046875 103.48705078 -71.2259375 103.28660156 -71.921875 103.08007812 C-76.69331905 101.53271223 -76.69331905 101.53271223 -78.12890625 99.0390625 C-77.95398833 96.27217911 -77.09099441 95.5473231 -75.0625 93.6875 C-74.41925781 93.09066406 -73.77601562 92.49382812 -73.11328125 91.87890625 C-72.06720703 90.94884766 -72.06720703 90.94884766 -71 90 C-70.29230469 89.34902344 -69.58460937 88.69804687 -68.85546875 88.02734375 C-63.46163232 83.15387744 -63.46163232 83.15387744 -60 82 C-59.67 83.98 -59.34 85.96 -59 88 C-56.03 87.505 -56.03 87.505 -53 87 C-52.96261719 85.98421875 -52.92523438 84.9684375 -52.88671875 83.921875 C-52.35936841 72.04490217 -50.98813043 61.56828644 -44.79296875 51.15625 C-43.79931167 49.06412496 -43.79931167 49.06412496 -44.44921875 47.078125 C-46.76484077 43.97507484 -49.63371833 41.68521008 -52.625 39.25 C-53.23601562 38.74339844 -53.84703125 38.23679688 -54.4765625 37.71484375 C-55.97929053 36.4703971 -57.48897467 35.23435872 -59 34 C-57.68753462 30.55905814 -56.33411133 27.86459118 -54 25 C-48.79068251 26.65969047 -45.30137891 30.00659299 -41.37304688 33.63085938 C-38.53037875 36.25765526 -38.53037875 36.25765526 -34.8828125 37.00390625 C-32.63904077 35.80753833 -30.86683415 34.40886674 -28.9375 32.75 C-24.00677233 28.78751753 -18.84839254 26.33570747 -13 24 C-11.9275 23.566875 -10.855 23.13375 -9.75 22.6875 C-7 22 -7 22 0 22 C0 14.74 0 7.48 0 0 Z " fill="#FAFBFE" transform="translate(129,42)"/>
<path d="M0 0 C0.79575943 0.3840802 1.59151886 0.7681604 2.41139221 1.16387939 C4.98538264 2.41144866 7.5450765 3.68572803 10.10546875 4.9609375 C11.88858972 5.83142753 13.67261654 6.70006433 15.45751953 7.56689453 C19.04287884 9.31138322 22.62295499 11.06603053 26.19873047 12.83007812 C30.79136404 15.09386245 35.39868402 17.32533915 40.015625 19.5390625 C40.67772476 19.85672577 41.33982452 20.17438904 42.02198792 20.50167847 C43.29737317 21.1135489 44.57278817 21.72535735 45.84823608 22.33709717 C50.67137912 24.65318293 55.48479536 26.98896031 60.29296875 29.3359375 C61.24921143 29.79983887 62.2054541 30.26374023 63.19067383 30.74169922 C64.08423584 31.1801416 64.97779785 31.61858398 65.8984375 32.0703125 C66.67856201 32.45155273 67.45868652 32.83279297 68.26245117 33.22558594 C73.85016785 36.28112705 76.1721908 40.56973018 78.29296875 46.3359375 C79.02174403 48.98396906 79.68598722 51.59603203 80.28588867 54.27148438 C80.46189102 55.03179459 80.63789337 55.7921048 80.81922913 56.57545471 C81.39403283 59.06704095 81.9591045 61.56071056 82.5234375 64.0546875 C82.9223508 65.7991961 83.32163349 67.54362027 83.7212677 69.28796387 C84.55515097 72.93496772 85.38412917 76.5830432 86.2097168 80.23193359 C87.26588442 84.89781897 88.33489345 89.56065149 89.40767956 94.22274017 C90.23410794 97.82124857 91.05335738 101.42136255 91.87050819 105.02198792 C92.26173905 106.74162168 92.65525462 108.46073736 93.05113792 110.17930603 C93.60418067 112.58473686 94.14741394 114.99218616 94.68823242 117.40039062 C94.85183258 118.10293472 95.01543274 118.80547882 95.18399048 119.52931213 C96.78237871 126.74582956 97.08916847 132.82638263 93.29296875 139.3359375 C91.42775218 141.97620808 89.38478938 144.43560551 87.29296875 146.8984375 C86.11487396 148.31556601 84.93780728 149.73354979 83.76171875 151.15234375 C83.17519531 151.85633301 82.58867187 152.56032227 81.984375 153.28564453 C79.53122829 156.25930591 77.15905928 159.29288218 74.79296875 162.3359375 C70.31678547 168.07125213 65.74387697 173.7225805 61.14208984 179.35742188 C57.51327749 183.80934189 53.94949954 188.30661887 50.41796875 192.8359375 C44.3120998 200.62176256 44.3120998 200.62176256 41.48046875 204.0234375 C40.99964844 204.60480469 40.51882812 205.18617188 40.0234375 205.78515625 C34.85834441 210.41391913 29.78119214 210.77893836 23.20166016 210.75585938 C21.85899834 210.76856369 21.85899834 210.76856369 20.48921204 210.78152466 C17.54083912 210.80485441 14.59298935 210.80591772 11.64453125 210.8046875 C9.58718661 210.81179179 7.52984395 210.81949118 5.47250366 210.82775879 C1.16357921 210.84119459 -3.14516205 210.84277651 -7.45410156 210.83691406 C-12.96434196 210.83102065 -18.47370047 210.86159936 -23.98377037 210.90203094 C-28.232134 210.92793492 -32.48028609 210.93078285 -36.7287178 210.92713928 C-38.75962158 210.92882817 -40.79053538 210.93844837 -42.82136154 210.95628357 C-45.66714506 210.9785253 -48.51115393 210.96874481 -51.35693359 210.95117188 C-52.1883638 210.96443512 -53.01979401 210.97769836 -53.87641907 210.99136353 C-60.92125575 210.89075206 -65.65042366 208.22176837 -70.72583008 203.42993164 C-71.20044678 202.83301514 -71.67506348 202.23609863 -72.1640625 201.62109375 C-72.71320313 200.94240234 -73.26234375 200.26371094 -73.828125 199.56445312 C-74.38628906 198.84966797 -74.94445312 198.13488281 -75.51953125 197.3984375 C-76.1228125 196.64626953 -76.72609375 195.89410156 -77.34765625 195.11914062 C-79.1475474 192.86832537 -80.92993609 190.60477541 -82.70703125 188.3359375 C-83.19606934 187.71444824 -83.68510742 187.09295898 -84.18896484 186.45263672 C-85.97133216 184.18745251 -87.75156989 181.92070965 -89.52270508 179.64672852 C-93.16994987 174.9752529 -96.92717705 170.40047288 -100.70703125 165.8359375 C-124.63406837 136.89294173 -124.63406837 136.89294173 -124.70703125 126.3359375 C-124.21463315 122.4614359 -123.34082475 118.71230932 -122.42578125 114.91796875 C-122.17679077 113.83425491 -121.92780029 112.75054108 -121.67126465 111.63398743 C-120.86390847 108.13536588 -120.03608911 104.64197394 -119.20703125 101.1484375 C-118.64727373 98.74815521 -118.08868333 96.34760046 -117.53125 93.94677734 C-116.43280329 89.22374529 -115.32664509 84.50261989 -114.21484375 79.78271484 C-112.93520926 74.3357813 -111.69797988 68.88079821 -110.48828125 63.41796875 C-110.17679775 62.02555296 -109.86496747 60.63321469 -109.55273438 59.2409668 C-109.00778794 56.80522616 -108.4695073 54.36797981 -107.93945312 51.92895508 C-106.34063036 44.9213149 -104.92629291 39.02284075 -99.203125 34.24609375 C-94.17104604 31.49672323 -88.99269073 29.13541099 -83.76953125 26.7734375 C-69.73692912 20.35515427 -55.87441882 13.60949225 -42.03540039 6.78491211 C-37.60679999 4.60509867 -33.16411803 2.45685359 -28.70703125 0.3359375 C-27.71219727 -0.14085449 -26.71736328 -0.61764648 -25.69238281 -1.10888672 C-16.54690647 -5.16899406 -8.8036187 -4.46821184 0 0 Z M-28.45703125 8.0234375 C-30.41204376 9.04294304 -32.36918201 10.05837979 -34.328125 11.0703125 C-35.36179199 11.60591797 -36.39545898 12.14152344 -37.46044922 12.69335938 C-43.07759688 15.53530323 -48.79921858 18.14713042 -54.51953125 20.7734375 C-56.88177193 21.86531981 -59.24375049 22.95776939 -61.60546875 24.05078125 C-62.77561523 24.59202637 -63.94576172 25.13327148 -65.15136719 25.69091797 C-66.32473633 26.23377441 -67.49810547 26.77663086 -68.70703125 27.3359375 C-69.89586914 27.88523926 -71.08470703 28.43454102 -72.30957031 29.00048828 C-75.76005423 30.60084297 -79.20305677 32.21631588 -82.64453125 33.8359375 C-83.68649658 34.31603271 -84.72846191 34.79612793 -85.80200195 35.29077148 C-93.16426272 38.6573038 -93.16426272 38.6573038 -98.70703125 44.3359375 C-100.16523008 48.44970179 -101.09426122 52.63739322 -102.01953125 56.8984375 C-102.30803955 58.1568042 -102.59654785 59.4151709 -102.89379883 60.71166992 C-103.68632093 64.17374856 -104.45477837 67.6407401 -105.21691895 71.10961914 C-106.06749233 74.97331963 -106.93156953 78.83401404 -107.79296875 82.6953125 C-108.82576884 87.32771987 -109.85530252 91.96071401 -110.86645508 96.59790039 C-111.18178168 98.03792793 -111.49712971 99.47795078 -111.8125 100.91796875 C-111.96433243 101.61773331 -112.11616486 102.31749786 -112.27259827 103.03846741 C-113.05684478 106.60145596 -113.90448686 110.13129012 -114.86962891 113.64990234 C-118.03946965 123.94710949 -118.03946965 123.94710949 -116.70703125 134.3359375 C-114.8841369 137.36326996 -112.69915966 139.90892794 -110.33203125 142.5234375 C-109.04285438 144.01440142 -107.75511049 145.50660551 -106.46875 147 C-105.82856934 147.73250977 -105.18838867 148.46501953 -104.52880859 149.21972656 C-101.96273956 152.20052077 -99.5472757 155.28564839 -97.14453125 158.3984375 C-93.22791249 163.42985299 -89.23907484 168.39658059 -85.20703125 173.3359375 C-80.53816632 179.05555661 -75.93173496 184.8183226 -71.39648438 190.64453125 C-66.19906602 197.65926582 -66.19906602 197.65926582 -59.70703125 203.3359375 C-56.83958605 203.54112883 -54.06846721 203.62963028 -51.19995117 203.62646484 C-50.3313295 203.63318207 -49.46270782 203.63989929 -48.56776428 203.64682007 C-45.6909516 203.66584598 -42.81437172 203.66972678 -39.9375 203.671875 C-37.93833825 203.67830048 -35.93917745 203.68502866 -33.9400177 203.69204712 C-29.74604106 203.70403191 -25.55214686 203.70772678 -21.3581543 203.70654297 C-15.98788829 203.70633988 -10.6181521 203.73362594 -5.24801159 203.76808739 C-1.1172697 203.79034387 3.01334453 203.79438087 7.14414024 203.79332352 C9.12366242 203.79568198 11.10318799 203.80451928 13.08265114 203.81998825 C15.85471086 203.83961975 18.6256263 203.83382104 21.39770508 203.82177734 C22.21298676 203.83301636 23.02826843 203.84425537 23.86825562 203.85583496 C29.9625695 203.78866999 33.60336104 202.02670402 37.99291992 197.63525391 C38.43611572 197.07499512 38.87931152 196.51473633 39.3359375 195.9375 C39.84640625 195.30070313 40.356875 194.66390625 40.8828125 194.0078125 C41.67365234 192.99460938 41.67365234 192.99460938 42.48046875 191.9609375 C43.32738281 190.89746094 43.32738281 190.89746094 44.19140625 189.8125 C45.90123646 187.66080356 47.59873385 185.49992608 49.29296875 183.3359375 C50.23685387 182.13531815 51.18085633 180.93479104 52.125 179.734375 C53.46119616 178.03358506 54.79614135 176.33187643 56.12768555 174.62744141 C59.62895511 170.15243851 63.20052724 165.73795816 66.79296875 161.3359375 C71.91912737 155.05439525 76.96216511 148.71357452 81.953125 142.32421875 C84.29296875 139.3359375 84.29296875 139.3359375 86.5390625 136.94140625 C89.60377472 132.38870458 89.4968978 127.72071533 88.72314453 122.46655273 C88.40870167 121.10593826 88.07966901 119.74863629 87.73828125 118.39453125 C87.47294838 117.27068275 87.47294838 117.27068275 87.20225525 116.12413025 C86.6201133 113.67068643 86.01916891 111.22227404 85.41796875 108.7734375 C85.00699602 107.05778587 84.59743193 105.34179627 84.18920898 103.62548828 C83.55190244 100.94869866 82.91313899 98.27231448 82.26896667 95.59716797 C80.72009562 89.16459297 79.22386995 82.72145531 77.7578125 76.26953125 C77.55482544 75.37819992 77.35183838 74.48686859 77.1427002 73.56852722 C76.35258254 70.09815621 75.56282273 66.62771281 74.77764893 63.15621948 C74.2357966 60.76471364 73.68878938 58.3744407 73.140625 55.984375 C72.98262924 55.28086411 72.82463348 54.57735321 72.66184998 53.8525238 C71.03799315 46.81217194 69.486285 42.36264482 63.29296875 38.3359375 C59.3274938 36.16993445 55.26039854 34.24893224 51.16796875 32.3359375 C49.98525391 31.77487305 48.80253906 31.21380859 47.58398438 30.63574219 C43.82675119 28.85529159 40.06090176 27.09360933 36.29296875 25.3359375 C35.68022095 25.04984619 35.06747314 24.76375488 34.43615723 24.46899414 C29.0494233 21.9547317 23.66049246 19.44535978 18.26025391 16.96020508 C13.00463309 14.54056751 7.76913286 12.0990958 2.58984375 9.51953125 C1.72810547 9.09446289 0.86636719 8.66939453 -0.02148438 8.23144531 C-1.57894453 7.45896006 -3.13044807 6.6742694 -4.67382812 5.87402344 C-13.90742284 1.31791638 -19.83810709 3.34581844 -28.45703125 8.0234375 Z " fill="#FBFCFE" transform="translate(148.70703125,17.6640625)"/>
<path d="M0 0 C2.91529259 1.34840345 5.27559417 2.89086693 7.75 4.93359375 C8.78640625 5.7834082 8.78640625 5.7834082 9.84375 6.65039062 C10.91109375 7.53500977 10.91109375 7.53500977 12 8.4375 C13.41613899 9.60350575 14.8327898 10.76889022 16.25 11.93359375 C16.87390625 12.44978271 17.4978125 12.96597168 18.140625 13.49780273 C20.05934008 15.04794111 22.0183024 16.53153796 24 18 C23.67 19.32 23.34 20.64 23 22 C19.66958536 22.98928125 16.33521674 23.96454291 13 24.9375 C11.59814453 25.35418945 11.59814453 25.35418945 10.16796875 25.77929688 C4.75980109 27.34880008 -0.39092274 28.47745625 -6 29 C-6.66294247 18.34872433 -5.78899676 10.70360654 -1 1 C-0.67 0.67 -0.34 0.34 0 0 Z " fill="#376FE5" transform="translate(95,97)"/>
<path d="M0 0 C1.98 0 3.96 0 6 0 C7.84255516 3.93324939 9.67244719 7.87226022 11.5 11.8125 C12.02464844 12.93205078 12.54929688 14.05160156 13.08984375 15.20507812 C13.83427734 16.81479492 13.83427734 16.81479492 14.59375 18.45703125 C15.05458984 19.44678955 15.51542969 20.43654785 15.99023438 21.45629883 C17 24 17 24 17 27 C7.43871633 29.59289049 -2.56352583 30.5112462 -12 27 C-10.26460179 21.07570956 -7.55448391 15.6641012 -4.875 10.125 C-4.40707031 9.15046875 -3.93914062 8.1759375 -3.45703125 7.171875 C-2.30785155 4.77970501 -1.15542757 2.38915684 0 0 Z " fill="#366FE5" transform="translate(132,138)"/>
<path d="M0 0 C4.55922618 4.02361508 6.6430504 9.99049689 7.17626953 15.97998047 C7.33862732 20.32688061 7.21107585 24.65535546 7 29 C3.85219298 28.40584291 0.70721355 27.79780079 -2.4375 27.1875 C-3.31599609 27.02185547 -4.19449219 26.85621094 -5.09960938 26.68554688 C-10.91281925 25.54864605 -16.43144473 24.01959066 -22 22 C-22.40625 19.83984375 -22.40625 19.83984375 -22 17 C-19.86311682 14.93814783 -17.88525227 13.28356986 -15.5 11.5625 C-14.54456299 10.84453247 -14.54456299 10.84453247 -13.56982422 10.11206055 C-11.72291158 8.72769744 -9.86243401 7.36336395 -8 6 C-6.37393112 4.77224771 -4.74866126 3.54343453 -3.125 2.3125 C-2.09375 1.549375 -1.0625 0.78625 0 0 Z " fill="#366FE5" transform="translate(173,97)"/>
<path d="M0 0 C5.65605369 0.38764969 10.16010089 1.12465221 15.25 3.8125 C16.22453125 4.31394531 17.1990625 4.81539063 18.203125 5.33203125 C21.02393656 7.01427502 23.48935775 8.88794511 26 11 C24.44630683 15.43167515 20.91597419 17.71145865 17.3125 20.4375 C16.71244141 20.90220703 16.11238281 21.36691406 15.49414062 21.84570312 C11.40004046 24.99873193 7.21858162 28.0161252 3 31 C2.01 30.34 1.02 29.68 0 29 C-0.34057617 26.11083984 -0.34057617 26.11083984 -0.29296875 22.4609375 C-0.28330078 21.15898438 -0.27363281 19.85703125 -0.26367188 18.515625 C-0.23860388 17.13541077 -0.21320902 15.75520244 -0.1875 14.375 C-0.17245517 12.98699337 -0.15876641 11.59897133 -0.14648438 10.2109375 C-0.1110257 6.80690491 -0.06160298 3.40364378 0 0 Z " fill="#346DE5" transform="translate(140,76)"/>
<path d="M0 0 C0 9.57 0 19.14 0 29 C-1.65 29.33 -3.3 29.66 -5 30 C-7.34602606 28.38691934 -9.2511957 26.85832302 -11.3125 24.9375 C-12.45685298 23.91760739 -13.60268364 22.89937034 -14.75 21.8828125 C-15.30300781 21.3868457 -15.85601562 20.89087891 -16.42578125 20.37988281 C-19.46691928 17.71417063 -22.72929592 15.37286374 -26 13 C-23.62034017 6.94624998 -17.37348773 4.59204947 -11.7734375 1.94921875 C-7.45495634 0.19014631 -4.83710696 0 0 0 Z " fill="#346EE5" transform="translate(129,76)"/>
<path d="M0 0 C-0.55969856 4.17229835 -1.51309575 7.58514274 -3.28515625 11.3984375 C-3.95708008 12.85830078 -3.95708008 12.85830078 -4.64257812 14.34765625 C-5.11115234 15.34667969 -5.57972656 16.34570312 -6.0625 17.375 C-6.53494141 18.39722656 -7.00738281 19.41945312 -7.49414062 20.47265625 C-8.65632219 22.98484671 -9.82509244 25.49374253 -11 28 C-18.48800122 26.31915893 -22.94132326 20.45738795 -27 14.25 C-30 9.45535714 -30 9.45535714 -30 6 C-18.28125 3.0703125 -18.28125 3.0703125 -16.14648438 2.53955078 C-14.69800921 2.175455 -13.25140335 1.80385168 -11.80664062 1.42529297 C-7.7455986 0.37073206 -4.20424691 -0.21021235 0 0 Z " fill="#356EE5" transform="translate(122,131)"/>
<path d="M0 0 C20.72340426 4.19148936 20.72340426 4.19148936 29 7 C27.76793353 15.76482727 21.19628236 22.28057653 14.69921875 27.8203125 C13 29 13 29 11 29 C8.95989061 24.92602145 6.94632874 20.83948152 4.9375 16.75 C4.35677734 15.59113281 3.77605469 14.43226563 3.17773438 13.23828125 C2.63310547 12.12324219 2.08847656 11.00820312 1.52734375 9.859375 C1.01937256 8.83295898 0.51140137 7.80654297 -0.01196289 6.74902344 C-1.04046631 3.88741028 -1.11627999 2.7718537 0 0 Z " fill="#366FE5" transform="translate(148,130)"/>
<path d="M0 0 C3.5 0.625 3.5 0.625 6 2.625 C8.14157385 6.90814769 7.71141944 9.00646338 6.5 13.625 C4.875 15.1875 4.875 15.1875 2.5 15.625 C-3.54166667 15.10416667 -3.54166667 15.10416667 -6.5 13.625 C-8.09090909 6.80681818 -8.09090909 6.80681818 -6 2.625 C-3.5 0.625 -3.5 0.625 0 0 Z " fill="#3D73E6" transform="translate(134.5,112.375)"/>
</svg>
